<?xml version="1.0" encoding="utf-8"?>
<!-- Generator: Adobe Illustrator 26.0.0, SVG Export Plug-In . SVG Version: 6.00 Build 0)  -->
<svg version="1.1" id="InShape_Clinic_Logo" xmlns="http://www.w3.org/2000/svg" xmlns:xlink="http://www.w3.org/1999/xlink"
	 x="0px" y="0px" viewBox="0 0 400 115" style="enable-background:new 0 0 400 115;" xml:space="preserve">
<style type="text/css">
	.st0{fill:#7A2682;}
</style>
<path id="Wordmark" class="st0" d="M399.4,56.4c3.4-22.2-8.5-31.9-25.4-31.9c-14.8,0-28.2,11.1-28.2,32.2
	c0,20.9,13.1,30.4,29.3,30.4c8.4,0,16.9-3.2,23.4-9.4l-1.3-3.9c-5,2.4-9.8,4.4-14.4,4.4c-9.7,0-17.9-6.5-17-21.7H399.4z M373.8,29.7
	c4.8,0,9,6.5,8,21h-15.9C366.1,35.2,369.4,29.7,373.8,29.7z M32,23.3c-6.4,0-11.2-4.7-11.2-11.2C20.8,5.7,25.5,1,32,1
	c6.4,0,11.2,4.7,11.2,11.2C43.2,18.6,38.4,23.3,32,23.3z M149.4,66.6c0,12.9-13.2,20.4-27.6,20.4c0,0-10.3-0.3-18.3-4.7l0-0.3v-6.2
	c5.8,2.8,11,4.8,17.3,4.8c6.6,0,12.4-1.5,12.4-7.5c0-12.9-31.2-6-31.2-29.5c0-2.3,0.4-4.6,1.2-6.7c0.9-2.4,2.5-4.5,4.4-6.2
	c2-1.7,4.3-3,6.7-4c2.6-1,5.4-1.6,8.2-1.9c3.7-0.4,7.5-0.5,11.2,0.3c3.4,0.7,6.7,1.7,9.9,2.9v4.9c-1.7-0.6-3.4-1.1-5.1-1.6
	c-3.7-1-7.7-1.7-11.6-1.4c-0.9,0.1-1.8,0.2-2.6,0.4c-3,0.8-5.6,3-5.6,6.3C118.6,50.6,149.4,44.3,149.4,66.6z M157,0.9h16.3v84.7H157
	V0.9z M209.2,37.6c1.4,3.4,2,7.1,2.1,10.7v37.3h-16.2l0-37.7l0,0c0-5.9-1.9-18.6-18.3-15.1l-0.6-2.6c7.6-7.8,19.9-7.5,27.9-0.3
	C206.4,32.1,208,34.7,209.2,37.6z M26.9,53.5v32.2h-16c0,0,0-13.7,0-34.5c0-13.6-6.6-19.8-10.9-23.2l1.1-3.5
	C28.3,27.2,26.9,53.5,26.9,53.5z M62.8,24.5l1.1,3.5C59.6,31.4,53,37.6,53,51.2c0,20.8,0,34.5,0,34.5H37V53.5
	C37,53.5,35.6,27.2,62.8,24.5z M270.4,41.2c0.6,3.6,0.6,7.3,0.6,10.9c0,11.3,0,22.6,0,33.9c-5.4,0-10.7,0-16.1,0c0-2.7,0-5.3,0-8
	c-4.5,5.9-12.1,9.6-19.5,8.9c-7.4-0.7-14.3-6.3-16-13.5c-1.8-7.8,2.5-16.1,9.1-20.5c6.6-4.5,15-5.5,22.9-4.6l0.5,2
	c0,0-13.5,1.7-16.1,11.6c-1.2,5.1,0.4,10.7,5.8,13c4,1.6,8.6,0.9,12.3-1.3c0.3-0.2,0.7-0.5,0.9-0.8c0.1-0.2,0.1-0.4,0.1-0.6
	c0-6.2,0.1-12.5,0.1-18.7c0-5.4-0.1-11.2-3.5-15.3c-3-3.6-7.9-5.1-12.5-4.9c-4.6,0.1-9.1,1.6-13.5,3.2c-0.5-1-1-1.9-1.5-2.9
	c6.7-5.1,15-8.1,23.4-8.6c0.7,0,1.3,0,2,0c6.2,0.1,12.5,1.8,16.6,6.4C268.4,34.1,269.7,37.6,270.4,41.2z M339.3,54.9L339.3,54.9
	c0,4.6-0.7,8.8-2.1,12.9c-2.6,7.8-8.5,14-16.4,16.7c-3.2,1.1-6.6,1.6-10,1.6c-4.5,0-9.3-0.9-13.3-2.7v29.9h-16.3V26.7h16.3v51.2
	c1.8,0.6,3.4,0.9,5.1,1.1l0,0.1c0,0,18.5,3.5,18.5-24.7c0-27.6-19.2-20.7-20.1-20.4c0,0,0,0,0,0c0,0-1.2-2.1-1.2-2.1
	c3.4-5.3,10.1-7.7,16.5-7.6c1.9,0,3.9,0.3,5.6,0.7C335.1,28.5,339.3,42.7,339.3,54.9z M94.6,56.5v29.2h-16c0,0,0,0,0-30.8
	c0-14.9-5.9-18.4-11.2-18.4c-1.4,0-2.8,0.2-4,0.6c-0.3-0.6-0.6-1.4-0.8-1.9c2.7-3.3,7.9-8.2,14.7-8.2c5.1,0.1,10,2.5,12.9,7
	C94.3,40.4,94.6,49.1,94.6,56.5z M137.9,114.1c-4.8,0-8.4-3.6-8.4-8.3c0-4.7,3.6-8.3,8.4-8.3c2.9,0,5.6,1.5,6.9,3.9l0.4,0.7
	l-2.3,1.3l-0.4-0.7c-0.8-1.6-2.6-2.6-4.6-2.6c-3.3,0-5.7,2.4-5.7,5.7c0,3.3,2.4,5.7,5.7,5.7c2,0,3.8-1,4.6-2.7l0.4-0.7l2.3,1.3
	l-0.4,0.7C143.5,112.6,140.8,114.1,137.9,114.1z M143,108.6l1.8,1l-0.2,0.4c-1.3,2.3-3.9,3.8-6.7,3.8c-4.6,0-8-3.4-8-8
	c0-4.5,3.5-8,8-8c2.8,0,5.3,1.4,6.6,3.7l0.2,0.4l-1.8,1l-0.2-0.4c-0.9-1.7-2.8-2.8-4.9-2.8c-3.5,0-6,2.5-6,6s2.5,6,6,6
	c2.1,0,4-1.1,4.9-2.8L143,108.6z M161.5,113.8V97.7h2.6v13.6h6.9v2.6H161.5z M163.8,111.6h6.9v1.9h-8.9V98h2V111.6z M187.6,113.8
	V97.7h2.6v16.1H187.6z M187.9,98h2v15.5h-2V98z M216.9,113.8l-7.4-10.8v10.8h-2.6V97.7h2.1l7.5,10.8V97.7h2.6v16.1H216.9z M216.8,98
	h2v15.5h-1.7l-7.9-11.5v11.5h-2V98h1.7l7.9,11.5V98z M235.7,113.8V97.7h2.6v16.1H235.7z M236,98h2v15.5h-2V98z M263.3,114.1
	c-4.8,0-8.4-3.6-8.4-8.3c0-4.7,3.6-8.3,8.4-8.3c2.9,0,5.6,1.5,6.9,3.9l0.4,0.7l-2.3,1.3l-0.4-0.7c-0.8-1.6-2.6-2.6-4.6-2.6
	c-3.3,0-5.7,2.4-5.7,5.7c0,3.3,2.4,5.7,5.7,5.7c2,0,3.8-1,4.6-2.7l0.4-0.7l2.3,1.3l-0.4,0.7C268.9,112.6,266.2,114.1,263.3,114.1z
	 M270.2,109.6L270,110c-1.3,2.3-3.9,3.8-6.7,3.8c-4.6,0-8-3.4-8-8c0-4.5,3.5-8,8-8c2.8,0,5.3,1.4,6.7,3.7l0.2,0.4l-1.8,1l-0.2-0.4
	c-0.9-1.7-2.8-2.8-4.9-2.8c-3.5,0-6,2.5-6,6s2.5,6,6,6c2.1,0,4-1.1,4.9-2.8l0.2-0.4L270.2,109.6z"/>
</svg>
